<svg id="svg" xmlns="http://www.w3.org/2000/svg" xmlns:xlink="http://www.w3.org/1999/xlink" width="400" height="509.4017094017094" viewBox="0, 0, 400,509.4017094017094"><g id="svgg"><path id="path0" d="M44.778 1.811 C 27.179 5.306,10.311 19.235,4.003 35.480 C 0.247 45.156,-1.876 446.830,1.737 464.237 C 5.507 482.394,16.257 495.916,33.118 503.708 L 43.590 508.547 217.473 508.547 L 391.357 508.547 395.251 504.653 L 399.145 500.760 399.145 254.701 L 399.145 8.642 395.252 4.748 L 391.359 0.855 221.748 0.602 C 128.462 0.464,48.825 1.008,44.778 1.811 M304.274 27.945 C 304.274 28.272,295.620 31.768,285.043 35.714 C 250.703 48.527,244.285 55.843,247.589 78.408 C 249.554 91.830,259.009 145.713,260.943 154.513 L 262.029 159.454 245.972 158.289 C 237.140 157.649,223.761 156.299,216.239 155.290 C 178.221 150.189,161.152 153.314,154.883 166.525 C 150.602 175.546,151.172 178.297,167.521 227.444 C 175.983 252.881,182.906 273.867,182.906 274.081 C 182.906 274.295,176.175 273.945,167.949 273.303 C 159.722 272.661,141.838 271.624,128.205 270.997 L 103.419 269.857 94.872 275.527 C 79.222 285.908,78.011 293.959,87.332 325.641 C 96.146 355.600,96.428 362.240,88.889 362.393 C 87.479 362.421,83.248 363.553,79.487 364.908 C 75.726 366.263,71.688 367.405,70.513 367.446 C 68.817 367.506,68.376 332.405,68.376 197.436 L 68.376 27.350 186.325 27.350 C 251.197 27.350,304.274 27.618,304.274 27.945 M41.026 216.216 L 41.026 401.664 34.834 404.251 C 31.429 405.673,28.352 406.838,27.996 406.838 C 26.217 406.838,27.477 47.393,29.269 43.905 C 31.061 40.417,39.303 30.769,40.491 30.769 C 40.785 30.769,41.026 114.220,41.026 216.216 M372.650 226.496 L 372.650 400.000 252.860 400.000 L 133.071 400.000 138.298 395.602 C 147.452 387.899,148.900 374.553,143.106 351.282 C 141.702 345.641,139.355 336.107,137.892 330.095 L 135.231 319.164 150.949 320.290 C 241.448 326.775,248.946 322.216,231.767 271.156 C 227.615 258.815,221.806 240.641,218.858 230.769 C 215.909 220.897,212.768 211.054,211.877 208.894 C 210.986 206.734,210.256 204.505,210.256 203.939 C 210.256 202.891,226.928 203.999,252.991 206.781 C 316.049 213.511,318.392 210.264,305.358 134.188 C 301.009 108.803,297.447 86.821,297.443 85.338 C 297.438 83.501,303.290 80.313,315.812 75.333 C 325.919 71.313,342.265 64.697,352.137 60.632 C 362.009 56.566,370.662 53.184,371.368 53.116 C 372.073 53.047,372.650 131.068,372.650 226.496 M372.650 434.188 L 372.650 441.026 212.061 441.026 L 51.473 441.026 46.819 445.029 C 40.929 450.095,40.529 458.383,45.916 463.770 L 49.667 467.521 211.158 467.983 L 372.650 468.444 372.650 475.248 L 372.650 482.051 209.655 482.051 L 46.659 482.051 40.892 478.164 C 23.386 466.367,22.577 443.857,39.221 431.664 L 45.109 427.350 208.879 427.350 L 372.650 427.350 372.650 434.188 " fill-rule="evenodd"></path></g></svg>