<?xml version="1.0" standalone="no"?>
<svg version="1.0" xmlns="http://www.w3.org/2000/svg"
 width="234.000000pt" height="298.000000pt" viewBox="0 0 234.000000 298.000000"
 preserveAspectRatio="xMidYMid meet">

<g transform="translate(0.000000,298.000000) scale(0.100000,-0.100000)">
<path d="M224 2959 c-86 -25 -181 -122 -204 -209 -7 -26 -9 -453 -8 -1282 l3
-1243 30 -54 c37 -66 92 -115 162 -141 53 -20 77 -20 1068 -20 1002 0 1015 0
1035 20 20 20 20 33 20 1460 0 1427 0 1440 -20 1460 -20 20 -33 20 -1038 19
-577 0 -1031 -5 -1048 -10z m1964 -1226 l2 -1093 -900 0 -900 0 0 1088 c0 599
3 1092 7 1095 3 4 407 6 897 5 l891 -3 3 -1092z m-1938 -18 l0 -1084 -43 -19
c-23 -11 -45 -16 -50 -12 -4 3 -6 479 -5 1056 l3 1049 23 37 c22 35 46 57 65
58 4 0 7 -488 7 -1085z m1938 -1272 l3 -43 -949 -2 c-918 -3 -951 -4 -971 -22
-25 -22 -28 -73 -7 -102 14 -19 39 -19 968 -24 l953 -5 0 -45 0 -45 -955 0
-955 0 -37 23 c-93 58 -109 193 -31 264 54 49 23 47 1033 45 l945 -2 3 -42z"/>
</g>
</svg>
