<svg id="svg" xmlns="http://www.w3.org/2000/svg" xmlns:xlink="http://www.w3.org/1999/xlink" width="400" height="509.4017094017094" viewBox="0, 0, 400,509.4017094017094"><g id="svgg"><path id="path0" d="M44.778 1.811 C 27.179 5.306,10.311 19.235,4.003 35.480 C 0.247 45.156,-1.876 446.830,1.737 464.237 C 5.507 482.394,16.257 495.916,33.118 503.708 L 43.590 508.547 217.473 508.547 L 391.357 508.547 395.251 504.653 L 399.145 500.760 399.145 254.701 L 399.145 8.642 395.252 4.748 L 391.359 0.855 221.748 0.602 C 128.462 0.464,48.825 1.008,44.778 1.811 M248.550 64.738 C 281.950 108.378,277.757 105.678,314.159 106.997 C 329.876 107.567,344.274 108.284,346.154 108.590 C 348.034 108.897,354.779 109.205,361.143 109.275 L 372.714 109.402 372.254 148.291 C 371.962 172.995,371.171 187.084,370.085 186.916 C 369.145 186.772,346.838 183.435,320.513 179.502 C 275.888 172.835,272.406 172.062,269.049 168.080 C 266.783 165.391,263.270 163.606,259.569 163.262 C 252.822 162.635,231.080 147.645,147.111 85.731 C 129.686 72.882,119.088 73.504,119.088 87.374 C 119.088 93.843,119.080 93.835,154.701 119.113 C 168.803 129.121,189.957 144.365,201.709 152.989 C 213.462 161.613,225.658 170.444,228.812 172.613 L 234.547 176.556 224.319 183.059 C 210.748 191.688,208.482 201.313,218.730 206.798 C 223.562 209.384,223.882 209.278,239.471 199.887 C 251.245 192.794,254.774 191.423,258.974 192.312 C 261.795 192.908,265.641 193.705,267.521 194.083 C 269.402 194.460,289.017 197.503,311.111 200.845 C 333.205 204.187,356.090 207.750,361.966 208.764 L 372.650 210.607 372.650 236.928 C 372.650 259.244,372.257 263.248,370.072 263.248 C 367.710 263.248,322.779 257.188,312.821 255.527 C 275.128 249.238,258.074 247.838,251.774 250.515 C 248.213 252.028,241.068 254.647,235.897 256.334 C 230.726 258.021,225.236 259.932,223.697 260.579 C 221.428 261.533,217.925 255.835,205.175 230.451 C 184.385 189.060,188.581 192.245,132.166 175.021 C 121.912 171.891,121.225 171.302,109.089 155.254 C 95.670 137.509,93.115 135.608,78.632 132.590 L 69.231 130.630 68.778 78.990 L 68.326 27.350 144.131 27.350 L 219.936 27.350 248.550 64.738 M372.650 57.372 L 372.650 87.393 361.966 86.484 C 356.090 85.985,337.821 85.091,321.368 84.499 C 304.915 83.907,291.345 83.307,291.213 83.164 C 291.081 83.022,283.845 73.675,275.135 62.393 C 266.424 51.111,256.632 38.611,253.374 34.615 L 247.451 27.350 310.050 27.350 L 372.650 27.350 372.650 57.372 M41.026 216.216 L 41.026 401.664 34.834 404.251 C 31.429 405.673,28.352 406.838,27.996 406.838 C 26.217 406.838,27.477 47.393,29.269 43.905 C 31.061 40.417,39.303 30.769,40.491 30.769 C 40.785 30.769,41.026 114.220,41.026 216.216 M78.104 155.532 C 79.223 155.545,86.210 163.310,93.631 172.788 C 108.794 192.154,104.249 189.642,150.593 204.262 L 170.417 210.515 175.522 221.070 C 178.329 226.875,185.562 241.239,191.595 252.991 C 197.628 264.744,202.955 276.275,203.433 278.616 C 205.191 287.235,212.100 288.190,228.782 282.122 C 261.914 270.068,256.143 270.316,313.795 278.467 C 341.934 282.445,366.688 286.117,368.803 286.625 L 372.650 287.550 372.650 343.775 L 372.650 400.000 342.035 400.000 L 311.421 400.000 313.793 391.026 C 315.097 386.090,317.005 378.015,318.032 373.082 C 319.817 364.501,320.410 363.782,331.695 356.482 C 344.191 348.398,347.185 343.469,343.631 336.830 C 338.699 327.614,324.166 331.384,306.333 346.506 C 301.563 350.551,288.889 389.000,288.889 399.427 C 288.889 399.767,262.601 399.842,230.472 399.595 L 172.055 399.145 168.658 384.179 C 166.789 375.947,165.577 368.975,165.964 368.685 C 166.350 368.396,182.335 361.330,201.485 352.985 C 239.243 336.530,241.026 335.419,241.026 328.348 C 241.026 313.807,233.363 314.544,191.150 333.144 C 149.415 351.533,156.134 350.564,142.404 340.171 C 130.574 331.215,128.422 330.473,122.883 333.437 C 112.862 338.800,115.563 348.611,129.915 358.974 C 135.773 363.205,141.344 368.590,142.293 370.940 C 144.115 375.452,148.556 394.235,148.658 397.863 C 148.704 399.514,139.569 400.000,108.510 400.000 L 68.302 400.000 68.767 367.210 L 69.231 334.420 97.959 321.939 L 126.687 309.459 133.164 316.268 C 141.197 324.712,148.280 325.492,153.752 318.535 C 158.674 312.278,157.215 308.750,144.496 296.154 C 130.990 282.778,131.327 282.776,100.170 296.478 C 86.402 302.532,73.611 307.971,71.744 308.563 C 68.391 309.627,68.350 308.690,68.412 231.557 L 68.474 153.473 72.271 154.491 C 74.360 155.051,76.984 155.519,78.104 155.532 M372.650 434.188 L 372.650 441.026 212.061 441.026 L 51.473 441.026 46.819 445.029 C 40.929 450.095,40.529 458.383,45.916 463.770 L 49.667 467.521 211.158 467.983 L 372.650 468.444 372.650 475.248 L 372.650 482.051 209.655 482.051 L 46.659 482.051 40.892 478.164 C 23.386 466.367,22.577 443.857,39.221 431.664 L 45.109 427.350 208.879 427.350 L 372.650 427.350 372.650 434.188 " fill-rule="evenodd"></path></g></svg>