<?xml version="1.0" standalone="no"?>

<svg version="1.0" xmlns="http://www.w3.org/2000/svg"
 width="184.000000pt" height="182.000000pt" viewBox="0 0 184.000000 182.000000"
 preserveAspectRatio="xMidYMid meet">

<g transform="translate(0.000000,182.000000) scale(0.100000,-0.100000)">
<path d="M920 1799 c0 -7 -20 -55 -45 -107 -145 -305 -408 -556 -768 -733 -37
-18 -67 -36 -67 -39 0 -3 48 -27 107 -55 168 -78 272 -153 414 -294 140 -140
229 -265 314 -439 27 -56 52 -102 55 -102 3 0 27 47 54 105 77 166 155 275
296 416 140 141 270 234 438 315 56 27 102 51 102 54 0 3 -44 27 -98 55 -174
88 -325 197 -458 329 -67 67 -145 156 -174 200 -52 78 -150 269 -150 294 0 6
-4 12 -10 12 -5 0 -10 -5 -10 -11z"/>
</g>
</svg>
