<?xml version="1.0" standalone="no"?>
<!DOCTYPE svg PUBLIC "-//W3C//DTD SVG 20010904//EN"
 "http://www.w3.org/TR/2001/REC-SVG-20010904/DTD/svg10.dtd">
<svg version="1.0" xmlns="http://www.w3.org/2000/svg"
 width="230.000000pt" height="246.000000pt" viewBox="0 0 230.000000 246.000000"
 preserveAspectRatio="xMidYMid meet">

<g transform="translate(0.000000,246.000000) scale(0.100000,-0.100000)">
<path d="M1638 1872 c-356 -317 -703 -627 -771 -688 -189 -170 -296 -327 -362
-530 l-26 -79 -210 -220 c-195 -203 -267 -296 -257 -326 2 -6 126 86 276 204
l272 214 87 -33 c135 -50 236 -67 367 -62 87 4 124 10 170 29 33 13 61 29 62
34 2 6 -16 24 -39 40 -53 39 -107 111 -130 171 -9 26 -16 49 -14 51 2 1 37 -8
78 -22 41 -14 133 -41 204 -60 l130 -35 30 22 c165 120 323 322 451 575 34 68
67 136 72 151 l9 27 -107 0 -108 0 -88 45 c-48 25 -89 50 -91 55 -2 6 68 25
155 43 86 19 195 43 243 53 l85 20 28 71 c68 175 114 420 141 751 4 42 3 77
-2 76 -4 0 -299 -260 -655 -577z"/>
</g>
</svg>
