<?xml version="1.0" standalone="no"?>
<!DOCTYPE svg PUBLIC "-//W3C//DTD SVG 20010904//EN"
 "http://www.w3.org/TR/2001/REC-SVG-20010904/DTD/svg10.dtd">
<svg version="1.0" xmlns="http://www.w3.org/2000/svg"
 width="114.000000pt" height="101.000000pt" viewBox="0 0 114.000000 101.000000"
 preserveAspectRatio="xMidYMid meet">

<g transform="translate(0.000000,101.000000) scale(0.100000,-0.100000)">
<path d="M761 977 c-49 -13 -89 -29 -95 -39 -10 -17 -9 -25 130 -653 31 -137
62 -257 70 -265 12 -12 25 -12 101 4 130 26 152 34 159 61 5 20 -31 192 -157
755 -17 74 -35 141 -41 147 -15 18 -70 15 -167 -10z m151 -132 c3 -14 3 -27
-1 -29 -11 -7 -162 -38 -165 -35 -2 2 -6 16 -10 31 -6 25 -4 27 57 41 96 23
114 21 119 -8z m18 -89 c0 -9 -25 -19 -71 -30 -87 -20 -99 -20 -99 -2 0 9 22
19 63 29 82 19 107 20 107 3z m131 -589 c6 -23 4 -28 -14 -32 -12 -3 -50 -11
-85 -19 l-63 -14 -10 25 c-5 14 -8 28 -5 30 6 6 150 41 160 39 6 -1 13 -14 17
-29z"/>
<path d="M10 961 c-6 -13 -10 -178 -10 -469 0 -422 1 -450 18 -465 28 -26 232
-25 255 1 15 17 17 64 17 473 0 341 -3 458 -12 467 -8 8 -53 12 -135 12 -111
0 -123 -2 -133 -19z m225 -136 l0 -30 -87 -3 -88 -3 0 36 0 37 88 -4 87 -4 0
-29z m5 -90 c0 -12 -17 -15 -90 -15 -73 0 -90 3 -90 15 0 12 17 15 90 15 73 0
90 -3 90 -15z m-2 -602 c-3 -28 -3 -28 -90 -31 l-88 -3 0 31 0 30 91 0 90 0
-3 -27z"/>
<path d="M350 961 c-6 -13 -10 -178 -10 -469 0 -422 1 -450 18 -465 28 -26
232 -25 255 1 15 17 17 64 17 466 0 289 -4 454 -10 467 -10 17 -22 19 -135 19
-113 0 -125 -2 -135 -19z m218 -138 l3 -33 -85 0 -86 0 0 34 0 34 83 -2 82 -1
3 -32z m2 -88 c0 -12 -16 -15 -85 -15 -69 0 -85 3 -85 15 0 12 16 15 85 15 69
0 85 -3 85 -15z m0 -605 l0 -30 -85 0 -85 0 0 30 0 30 85 0 85 0 0 -30z"/>
</g>
</svg>
