<?xml version="1.0" standalone="no"?>
<!DOCTYPE svg PUBLIC "-//W3C//DTD SVG 20010904//EN"
 "http://www.w3.org/TR/2001/REC-SVG-20010904/DTD/svg10.dtd">
<svg version="1.0" xmlns="http://www.w3.org/2000/svg"
 width="96.000000pt" height="96.000000pt" viewBox="0 0 96.000000 96.000000"
 preserveAspectRatio="xMidYMid meet">

<g transform="translate(0.000000,96.000000) scale(0.100000,-0.100000)">
<path d="M705 861 c-11 -5 -100 -90 -197 -188 -173 -174 -177 -179 -192 -239
-22 -86 -21 -111 8 -129 22 -15 30 -14 102 4 l79 20 182 184 c172 172 183 185
183 221 0 30 -8 45 -42 82 -45 46 -86 61 -123 45z m74 -77 c38 -31 39 -53 6
-84 l-26 -24 -42 42 -42 43 28 25 c35 30 38 30 76 -2z m-104 -114 l39 -40
-124 -125 c-110 -110 -129 -125 -172 -136 -27 -6 -51 -9 -53 -7 -2 2 2 28 10
58 13 49 26 66 132 172 65 65 120 118 123 118 3 0 24 -18 45 -40z"/>
<path d="M168 789 c-23 -12 -46 -35 -58 -59 -18 -36 -20 -58 -20 -280 0 -275
5 -297 78 -338 38 -21 50 -22 281 -22 277 0 298 5 339 78 21 38 22 50 20 209
l-3 168 -25 0 -25 0 -5 -173 -5 -174 -28 -24 c-28 -24 -29 -24 -268 -24 l-241
0 -29 29 -29 29 0 242 0 242 29 29 29 29 165 0 c134 0 167 3 177 15 10 12 10
18 0 30 -10 12 -43 15 -179 15 -145 -1 -171 -3 -203 -21z"/>
</g>
</svg>
