<?xml version="1.0" standalone="no"?>
<!DOCTYPE svg PUBLIC "-//W3C//DTD SVG 20010904//EN"
 "http://www.w3.org/TR/2001/REC-SVG-20010904/DTD/svg10.dtd">
<svg version="1.0" xmlns="http://www.w3.org/2000/svg" viewBox="0 0 345.000000 351.000000"
 preserveAspectRatio="xMidYMid meet">

<g transform="translate(0.000000,351.000000) scale(0.100000,-0.100000)"
 stroke="none">
<path d="M546 3484 c-3 -8 -6 -43 -6 -77 l0 -62 98 -42 c53 -23 194 -83 312
-133 213 -91 248 -107 365 -160 90 -41 101 -43 129 -25 49 32 64 22 -429 275
-99 51 -244 126 -321 166 -117 61 -143 71 -148 58z"/>
<path d="M2396 3262 c-258 -131 -471 -242 -473 -247 -2 -6 12 -18 30 -28 l34
-18 99 44 c127 57 286 123 554 232 118 48 223 91 233 96 14 8 17 23 17 84 0
54 -4 75 -12 74 -7 0 -224 -107 -482 -237z"/>
<path d="M357 3383 c-4 -3 -7 -32 -7 -64 l0 -57 -95 -32 c-52 -17 -95 -35 -95
-39 0 -4 51 -22 113 -40 61 -18 195 -59 297 -91 102 -32 289 -91 415 -130 127
-39 261 -82 298 -96 38 -13 73 -24 78 -24 6 0 9 15 7 32 -3 32 -5 33 -193 110
-104 43 -228 95 -275 115 -116 49 -175 74 -315 132 l-120 49 -3 57 c-3 54 -5
57 -37 71 -38 15 -58 18 -68 7z"/>
<path d="M3018 3378 c-25 -9 -28 -14 -28 -58 0 -54 -6 -61 -75 -88 -27 -11
-214 -86 -415 -167 -201 -81 -389 -157 -417 -168 -47 -18 -53 -23 -53 -48 0
-16 5 -29 11 -29 6 0 97 26 202 59 295 90 461 140 587 176 63 18 171 50 240
70 69 21 141 42 160 47 60 17 57 21 -40 53 l-95 30 -3 68 c-3 62 -5 67 -25 66
-12 0 -34 -5 -49 -11z"/>
<path d="M100 3018 c-33 -17 -51 -35 -67 -68 l-22 -45 -1 -1145 c0 -717 4
-1158 10 -1179 15 -52 59 -110 104 -136 23 -13 109 -42 191 -65 83 -23 191
-54 240 -70 50 -15 99 -30 110 -33 11 -2 139 -39 285 -82 517 -151 635 -185
643 -185 4 0 7 515 7 1145 0 630 3 1145 6 1145 3 0 33 -7 67 -16 55 -14 76
-14 130 2 16 5 17 -53 17 -1130 0 -1124 0 -1136 20 -1136 11 0 90 20 177 45
87 25 190 54 228 65 39 10 189 53 335 94 146 41 355 100 465 130 281 79 274
76 316 120 81 83 74 -31 74 1282 l0 1170 -28 43 c-29 44 -76 71 -122 71 -25 0
-184 -43 -405 -110 -58 -18 -157 -47 -220 -65 -63 -18 -169 -50 -235 -70 -66
-20 -165 -49 -220 -65 -55 -16 -175 -52 -266 -79 -92 -28 -188 -53 -215 -56
-63 -9 -117 5 -624 161 -223 69 -443 136 -490 151 -47 14 -155 47 -240 73
-209 65 -215 66 -270 38z m461 -467 c90 -27 268 -79 394 -116 127 -36 257 -75
290 -85 33 -10 99 -30 148 -45 l87 -26 0 -130 c0 -100 -3 -131 -14 -135 -7 -3
-69 11 -137 32 -229 67 -247 72 -253 66 -3 -3 -6 -364 -6 -803 l0 -798 -72 20
c-40 11 -97 27 -125 35 l-53 15 0 809 0 809 -57 17 c-32 9 -112 32 -178 51
-66 20 -136 40 -155 45 -55 15 -60 29 -60 158 0 110 3 130 20 130 4 0 81 -22
171 -49z m1917 -903 c2 -730 4 -808 18 -808 14 0 185 43 493 125 74 19 97 22
103 12 4 -6 6 -18 3 -25 -3 -8 -5 -62 -5 -122 l0 -108 -32 -10 c-18 -5 -67
-19 -108 -30 -41 -12 -178 -50 -305 -86 -344 -97 -380 -106 -399 -106 -18 0
-18 38 -13 928 3 510 9 940 14 957 8 26 18 32 99 57 49 15 98 26 109 25 20 -2
20 -10 23 -809z"/>
<path d="M1640 2931 c-68 -14 -120 -61 -120 -108 0 -86 206 -134 308 -73 139
85 1 218 -188 181z"/>
</g>
</svg>
